HIERARCHY
ROOT Hips
{
	OFFSET 0.000000 0.000000 0.000000
	CHANNELS 6 Xposition Yposition Zposition Zrotation Yrotation Xrotation 
	JOINT LHipJoint
	{
		OFFSET 0.000000 0.000000 0.000000
		CHANNELS 3 Zrotation Yrotation Xrotation
		JOINT LeftUpLeg
		{
			OFFSET 1.363060 -1.794630 0.839290
			CHANNELS 3 Zrotation Yrotation Xrotation
			JOINT LeftLeg
			{
				OFFSET 2.448110 -6.726130 0.000000
				CHANNELS 3 Zrotation Yrotation Xrotation
				JOINT LeftFoot
				{
					OFFSET 2.562200 -7.039590 0.000000
					CHANNELS 3 Zrotation Yrotation Xrotation
					JOINT LeftToeBase
					{
						OFFSET 0.157640 -0.433110 2.322550
						CHANNELS 3 Zrotation Yrotation Xrotation
						End Site
						{
							OFFSET 0.000000 0.000000 0.000000
						}
					}
				}
			}
		}
	}
	JOINT RHipJoint
	{
		OFFSET 0.000000 0.000000 0.000000
		CHANNELS 3 Zrotation Yrotation Xrotation
		JOINT RightUpLeg
		{
			OFFSET -1.305520 -1.794630 0.839290
			CHANNELS 3 Zrotation Yrotation Xrotation
			JOINT RightLeg
			{
				OFFSET -2.542530 -6.985550 0.000000
				CHANNELS 3 Zrotation Yrotation Xrotation
				JOINT RightFoot
				{
					OFFSET -2.568260 -7.056230 0.000000
					CHANNELS 3 Zrotation Yrotation Xrotation
					JOINT RightToeBase
					{
						OFFSET -0.164730 -0.452590 2.363150
						CHANNELS 3 Zrotation Yrotation Xrotation
						End Site
						{
							OFFSET 0.000000 0.000000 0.000000
						}
					}
				}
			}
		}
	}
	JOINT LowerBack
	{
		OFFSET 0.000000 0.000000 0.000000
		CHANNELS 3 Zrotation Yrotation Xrotation
		JOINT Spine
		{
			OFFSET 0.028270 2.035590 -0.193380
			CHANNELS 3 Zrotation Yrotation Xrotation
			JOINT Spine1
			{
				OFFSET 0.056720 2.048850 -0.042750
				CHANNELS 3 Zrotation Yrotation Xrotation
				JOINT Neck
				{
					OFFSET 0.000000 0.000000 0.000000
					CHANNELS 3 Zrotation Yrotation Xrotation
					JOINT Neck1
					{
						OFFSET -0.054170 1.746240 0.172020
						CHANNELS 3 Zrotation Yrotation Xrotation
						JOINT Head
						{
							OFFSET 0.104070 1.761360 -0.123970
							CHANNELS 3 Zrotation Yrotation Xrotation
							End Site
							{
								OFFSET 0.000000 0.000000 0.000000
							}
						}
					}
				}
				JOINT LeftShoulder
				{
					OFFSET 0.000000 0.000000 0.000000
					CHANNELS 3 Zrotation Yrotation Xrotation
					JOINT LeftArm
					{
						OFFSET 3.362410 1.200890 -0.311210
						CHANNELS 3 Zrotation Yrotation Xrotation
						JOINT LeftForeArm
						{
							OFFSET 4.983000 -0.000000 -0.000000
							CHANNELS 3 Zrotation Yrotation Xrotation
							JOINT LeftHand
							{
								OFFSET 3.483560 -0.000000 -0.000000
								CHANNELS 3 Zrotation Yrotation Xrotation
								JOINT LeftFingerBase
								{
									OFFSET 0.000000 0.000000 0.000000
									CHANNELS 3 Zrotation Yrotation Xrotation
									JOINT LeftHandIndex1
									{
										OFFSET 0.715260 -0.000000 -0.000000
										CHANNELS 3 Zrotation Yrotation Xrotation
										End Site
										{
											OFFSET 0.000000 0.000000 0.000000
										}
									}
								}
								JOINT LThumb
								{
									OFFSET 0.000000 0.000000 0.000000
									CHANNELS 3 Zrotation Yrotation Xrotation
									End Site
									{
										OFFSET 0.000000 0.000000 0.000000
									}
								}
							}
						}
					}
				}
				JOINT RightShoulder
				{
					OFFSET 0.000000 0.000000 0.000000
					CHANNELS 3 Zrotation Yrotation Xrotation
					JOINT RightArm
					{
						OFFSET -3.136600 1.374050 -0.404650
						CHANNELS 3 Zrotation Yrotation Xrotation
						JOINT RightForeArm
						{
							OFFSET -5.241900 -0.000000 -0.000000
							CHANNELS 3 Zrotation Yrotation Xrotation
							JOINT RightHand
							{
								OFFSET -3.444170 -0.000000 -0.000000
								CHANNELS 3 Zrotation Yrotation Xrotation
								JOINT RightFingerBase
								{
									OFFSET 0.000000 0.000000 0.000000
									CHANNELS 3 Zrotation Yrotation Xrotation
									JOINT RightHandIndex1
									{
										OFFSET -0.622530 -0.000000 -0.000000
										CHANNELS 3 Zrotation Yrotation Xrotation
										End Site
										{
											OFFSET 0.000000 0.000000 0.000000
										}
									}
								}
								JOINT RThumb
								{
									OFFSET 0.000000 0.000000 0.000000
									CHANNELS 3 Zrotation Yrotation Xrotation
									End Site
									{
										OFFSET 0.000000 0.000000 0.000000
									}
								}
							}
						}
					}
				}
			}
		}
	}
}
MOTION
Frames: 8
Frame Time: 0.008333
11.271436 17.560126 -6.890709 2.653859 4.756994 5.038624 10.585648 4.662996 -0.310771 -36.141946 -4.718681 -0.585860 -0.609533 6.511124 21.650885 2.157161 -6.849236 -1.286982 0.028554 -1.091209 -2.999756 -15.286000 -5.975698 2.522010 29.177602 12.425832 -35.247825 -3.798589 -16.404582 43.455342 1.116047 -9.670364 -8.902715 -0.290901 3.468177 -9.585044 -2.517026 -1.815488 -1.529069 0.348324 -2.841111 -4.122997 1.948931 -1.530724 5.472625 -9.180252 -4.391789 -19.825889 3.494421 -3.931034 9.295186 4.679633 -2.596362 13.551605 -7.038445 -5.923212 0.224996 -67.179836 -5.149530 41.630589 11.107676 -21.293426 -3.471526 -1.716879 -3.000267 -0.613890 15.110129 27.227361 8.628454 -7.125000 0.000000 0.000000 -16.720444 60.351556 -6.365038 4.425252 5.882489 0.565294 68.698055 -12.107295 50.380519 -26.898610 35.559518 -10.677362 -0.294050 0.080500 -16.655283 -16.284942 16.953549 -4.748177 7.125000 0.000000 0.000000 7.841936 -12.653723 5.991301
11.266677 17.540232 -6.778682 2.870540 4.900873 5.142259 10.579136 4.675228 -0.336190 -36.279602 -4.409457 -0.108874 -0.651453 6.357351 21.312247 2.206337 -7.121868 -1.201614 0.027603 -1.071729 -2.946198 -15.265367 -5.943787 2.570962 28.620704 12.971752 -35.327187 -3.371317 -15.997268 41.828642 1.099975 -9.650988 -9.001923 -0.299180 3.516752 -9.720923 -2.763201 -1.887000 -1.577996 0.347844 -2.932156 -4.141917 2.051958 -1.595202 5.437208 -9.213227 -4.387538 -19.827512 3.533206 -3.913745 9.322838 4.716889 -2.590780 13.581183 -7.038393 -5.950454 0.234811 -67.005926 -5.492169 41.963921 11.295750 -21.483354 -3.551899 -1.729452 -3.025000 -0.933980 15.274096 27.423977 8.784832 -7.125000 0.000000 0.000000 -16.658513 60.594040 -6.436529 4.410344 5.887063 0.552630 68.733677 -12.324263 50.344551 -26.815384 35.505683 -10.630847 -0.287719 0.074007 -16.572340 -16.390553 17.009628 -4.800739 7.125000 0.000000 0.000000 7.771120 -12.576195 5.948291
11.263032 17.517871 -6.665462 3.071679 4.985125 5.239486 10.574888 4.688234 -0.367519 -36.413289 -4.069697 0.371852 -0.694382 6.200087 20.964439 2.246617 -7.360404 -1.107841 0.025072 -1.020848 -2.806263 -15.249938 -5.908634 2.618984 28.052229 13.573235 -35.388347 -2.950856 -15.573138 40.182244 1.105745 -9.736491 -9.035435 -0.307534 3.565253 -9.856605 -2.972969 -1.940294 -1.664014 0.343908 -2.994880 -4.142448 2.136482 -1.646579 5.486519 -9.270122 -4.396261 -19.874338 3.590139 -3.902414 9.341830 4.776781 -2.585667 13.611205 -7.042079 -5.978110 0.250964 -66.846090 -5.911601 42.204902 11.465987 -21.642568 -3.625280 -1.748116 -3.042366 -1.209477 15.486425 27.597836 8.962687 -7.125000 0.000000 0.000000 -16.519388 60.820700 -6.470348 4.396882 5.894832 0.546190 68.759972 -12.436932 50.288464 -26.691606 35.416689 -10.559225 -0.273570 0.055554 -16.485957 -16.676082 17.161165 -4.941332 7.125000 0.000000 0.000000 7.581266 -12.367559 5.833518
11.258071 17.498081 -6.549669 3.200707 5.087120 5.336464 10.568008 4.701076 -0.401890 -36.449351 -3.733791 0.845545 -0.736960 6.037932 20.606126 2.291669 -7.625884 -0.988563 0.020963 -0.927269 -2.548839 -15.246857 -5.869287 2.669090 27.532480 14.274957 -35.401246 -2.538201 -15.132263 38.523033 1.136256 -9.960159 -9.168028 -0.318716 3.628522 -10.033844 -3.129045 -1.995615 -1.770074 0.346481 -3.059379 -4.135391 2.225151 -1.700103 5.570646 -9.317921 -4.435907 -19.933957 3.642437 -3.937434 9.346696 4.823755 -2.597633 13.634592 -7.041925 -6.004259 0.270275 -66.686012 -6.343836 42.374651 11.654519 -21.821539 -3.706338 -1.761150 -3.056168 -1.427004 15.634086 27.726553 9.089847 -7.125000 0.000000 0.000000 -16.427151 60.986792 -6.498483 4.385087 5.900212 0.541104 68.809651 -12.536855 50.249104 -26.559063 35.315636 -10.475886 -0.254740 0.046636 -16.586175 -16.882321 17.168165 -5.016327 7.125000 0.000000 0.000000 7.434438 -12.324197 5.726034
11.251977 17.480508 -6.431661 3.267608 5.204402 5.433228 10.558860 4.713778 -0.438881 -36.401303 -3.401206 1.313178 -0.779235 5.871563 20.238762 2.340831 -7.914578 -0.847312 0.015495 -0.796903 -2.190193 -15.254412 -5.826326 2.720991 27.054708 15.063038 -35.372566 -2.132270 -14.676960 36.852784 1.188084 -10.302863 -9.385983 -0.332335 3.704514 -10.246885 -3.238865 -2.052683 -1.893402 0.354661 -3.125406 -4.121797 2.317391 -1.755477 5.684771 -9.357884 -4.502194 -20.004600 3.690740 -4.012387 9.339394 4.859600 -2.624313 13.652261 -7.038463 -6.029109 0.292307 -66.525723 -6.787103 42.483031 11.858813 -22.017534 -3.794010 -1.769332 -3.066899 -1.594590 15.726032 27.816378 9.173332 -7.125000 0.000000 0.000000 -16.375308 61.100705 -6.521721 4.374730 5.903535 0.537185 68.879476 -12.625796 50.224157 -26.418968 35.204194 -10.382454 -0.231877 0.045932 -16.847158 -17.020247 17.050641 -5.034806 7.125000 0.000000 0.000000 7.324677 -12.423224 5.624829
11.244110 17.465900 -6.313316 3.272633 5.326892 5.537118 10.548150 4.725801 -0.475027 -36.276632 -3.128530 1.828286 -0.829788 5.681577 19.811129 2.387710 -8.178797 -0.745863 0.009544 -0.574608 -1.579093 -15.273481 -5.777729 2.783537 26.596186 15.988022 -35.307728 -1.743614 -14.216651 35.205588 1.253280 -10.721968 -9.710280 -0.348116 3.790095 -10.487012 -3.301101 -2.098507 -2.015274 0.364871 -3.179725 -4.118988 2.400102 -1.801693 5.740781 -9.371863 -4.555545 -20.011333 3.734007 -4.083154 9.327985 4.886681 -2.648746 13.650725 -7.034161 -6.051744 0.312588 -66.351897 -7.179549 42.637441 12.061255 -22.211723 -3.876416 -1.772515 -3.071306 -1.792569 15.814368 27.795733 9.222134 -7.125000 0.000000 0.000000 -16.245336 61.101350 -6.469078 4.365917 5.905252 0.527960 68.998764 -12.777383 50.185187 -26.247668 35.063663 -10.265282 -0.211602 0.059343 -17.092834 -16.986120 16.719932 -4.934754 7.125000 0.000000 0.000000 7.322009 -12.774307 5.567583
11.234861 17.453604 -6.194708 3.229430 5.453442 5.646563 10.536223 4.737296 -0.510513 -36.092239 -2.902548 2.380396 -0.886792 5.473182 19.336522 2.432809 -8.423939 -0.675437 0.003215 -0.280664 -0.771228 -15.301526 -5.724738 2.854379 26.152669 17.019708 -35.214708 -1.368420 -13.752441 33.576361 1.328895 -11.200621 -10.117462 -0.365582 3.883148 -10.748250 -3.326248 -2.135568 -2.136013 0.376663 -3.224919 -4.124587 2.475388 -1.840772 5.751497 -9.365590 -4.598812 -19.968256 3.773348 -4.150659 9.313376 4.906932 -2.671428 13.634220 -7.029203 -6.072652 0.331504 -66.167520 -7.532386 42.827727 12.262254 -22.404504 -3.954717 -1.771801 -3.070785 -2.014237 15.899889 27.688985 9.243904 -7.125000 0.000000 0.000000 -16.054470 61.013713 -6.357292 4.358308 5.905718 0.514600 69.156602 -12.977798 50.135289 -26.052046 34.900458 -10.129608 -0.193344 0.083755 -17.326580 -16.817893 16.223064 -4.742319 7.125000 0.000000 0.000000 7.402811 -13.321845 5.544598
11.227496 17.441149 -6.076899 3.238469 5.557324 5.738065 10.530397 4.750947 -0.548270 -35.988274 -2.689085 3.045744 -0.956644 5.232384 18.780388 2.453700 -8.546005 -0.659335 0.000630 -0.060988 -0.167541 -15.323212 -5.670209 2.923466 25.584717 18.064452 -35.131843 -1.029663 -13.296114 32.019038 1.392687 -11.620107 -10.572879 -0.357887 3.841213 -10.630604 -3.373133 -2.163062 -2.249593 0.376430 -3.254122 -4.125228 2.518231 -1.869865 5.758638 -9.370695 -4.629240 -19.869138 3.840549 -4.198558 9.288732 4.960187 -2.684305 13.592286 -7.035236 -6.089846 0.353960 -65.970063 -7.898043 43.026871 12.428871 -22.554480 -4.018206 -1.772258 -3.071806 -2.227119 15.967399 27.591705 9.258871 -7.125000 0.000000 0.000000 -15.891618 60.932315 -6.260093 4.344564 5.909997 0.502773 69.337573 -13.159677 49.895970 -25.859348 34.748893 -10.009307 -0.197005 0.115303 -17.032489 -16.433029 15.663653 -4.467624 7.125000 0.000000 0.000000 7.646437 -13.964208 5.621993
